<mxfile host="app.diagrams.net" agent="Mozilla/5.0 (Windows NT 10.0; Win64; x64) AppleWebKit/537.36 (KHTML, like Gecko) Chrome/129.0.0.0 Safari/537.36" version="24.8.1" pages="3">
  <diagram name="M04" id="c7558073-3199-34d8-9f00-42111426c3f3">
    <mxGraphModel dx="2158" dy="824" grid="1" gridSize="10" guides="1" tooltips="1" connect="1" arrows="1" fold="1" page="1" pageScale="1" pageWidth="826" pageHeight="1169" background="none" math="0" shadow="0">
      <root>
        <mxCell id="0" />
        <mxCell id="1" parent="0" />
        <mxCell id="b8nhEuwxJYWnv2mNhjHD-108" value="Data Pelanggan" style="edgeStyle=orthogonalEdgeStyle;rounded=0;orthogonalLoop=1;jettySize=auto;html=1;exitX=1;exitY=0.5;exitDx=0;exitDy=0;entryX=0;entryY=0.5;entryDx=0;entryDy=0;" edge="1" parent="1" source="b8nhEuwxJYWnv2mNhjHD-98" target="b8nhEuwxJYWnv2mNhjHD-123">
          <mxGeometry relative="1" as="geometry">
            <mxPoint x="330" y="110" as="targetPoint" />
          </mxGeometry>
        </mxCell>
        <mxCell id="b8nhEuwxJYWnv2mNhjHD-109" value="Data Retur Penjualan" style="edgeStyle=orthogonalEdgeStyle;rounded=0;orthogonalLoop=1;jettySize=auto;html=1;exitX=0.5;exitY=1;exitDx=0;exitDy=0;entryX=0;entryY=0.5;entryDx=0;entryDy=0;" edge="1" parent="1" source="b8nhEuwxJYWnv2mNhjHD-98" target="b8nhEuwxJYWnv2mNhjHD-129">
          <mxGeometry relative="1" as="geometry">
            <mxPoint x="130" y="220" as="targetPoint" />
          </mxGeometry>
        </mxCell>
        <mxCell id="b8nhEuwxJYWnv2mNhjHD-110" value="Data Pesanan" style="edgeStyle=orthogonalEdgeStyle;rounded=0;orthogonalLoop=1;jettySize=auto;html=1;exitX=0.75;exitY=1;exitDx=0;exitDy=0;entryX=0;entryY=0.5;entryDx=0;entryDy=0;" edge="1" parent="1" source="b8nhEuwxJYWnv2mNhjHD-98" target="b8nhEuwxJYWnv2mNhjHD-127">
          <mxGeometry relative="1" as="geometry">
            <mxPoint x="200" y="280" as="targetPoint" />
            <Array as="points">
              <mxPoint x="67" y="255" />
            </Array>
          </mxGeometry>
        </mxCell>
        <mxCell id="b8nhEuwxJYWnv2mNhjHD-98" value="Pelanggan" style="whiteSpace=wrap;align=center;verticalAlign=middle;fontStyle=1;strokeWidth=3;fillColor=#FFFFCC" vertex="1" parent="1">
          <mxGeometry y="80" width="90" height="60" as="geometry" />
        </mxCell>
        <mxCell id="b8nhEuwxJYWnv2mNhjHD-111" value="Faktur Penjualan 1" style="edgeStyle=orthogonalEdgeStyle;rounded=0;orthogonalLoop=1;jettySize=auto;html=1;entryX=0.25;entryY=1;entryDx=0;entryDy=0;" edge="1" parent="1" target="b8nhEuwxJYWnv2mNhjHD-98">
          <mxGeometry relative="1" as="geometry">
            <mxPoint x="45" y="240" as="sourcePoint" />
          </mxGeometry>
        </mxCell>
        <mxCell id="b8nhEuwxJYWnv2mNhjHD-115" value="Faktur Penjualan 2" style="edgeStyle=orthogonalEdgeStyle;rounded=0;orthogonalLoop=1;jettySize=auto;html=1;entryX=0;entryY=0.75;entryDx=0;entryDy=0;" edge="1" parent="1" target="b8nhEuwxJYWnv2mNhjHD-100">
          <mxGeometry relative="1" as="geometry">
            <mxPoint x="440" y="225" as="sourcePoint" />
          </mxGeometry>
        </mxCell>
        <mxCell id="b8nhEuwxJYWnv2mNhjHD-116" value="Bukti Retur Penjualan 2" style="edgeStyle=orthogonalEdgeStyle;rounded=0;orthogonalLoop=1;jettySize=auto;html=1;entryX=0.75;entryY=1;entryDx=0;entryDy=0;" edge="1" parent="1" target="b8nhEuwxJYWnv2mNhjHD-100">
          <mxGeometry relative="1" as="geometry">
            <mxPoint x="605" y="290" as="sourcePoint" />
          </mxGeometry>
        </mxCell>
        <mxCell id="b8nhEuwxJYWnv2mNhjHD-100" value="Bg. Penjualan" style="whiteSpace=wrap;align=center;verticalAlign=middle;fontStyle=1;strokeWidth=3;fillColor=#FFFFCC" vertex="1" parent="1">
          <mxGeometry x="660" y="180" width="90" height="60" as="geometry" />
        </mxCell>
        <mxCell id="b8nhEuwxJYWnv2mNhjHD-104" value="Bg. Gudang" style="whiteSpace=wrap;align=center;verticalAlign=middle;fontStyle=1;strokeWidth=3;fillColor=#FFFFCC" vertex="1" parent="1">
          <mxGeometry x="10" y="470" width="90" height="60" as="geometry" />
        </mxCell>
        <mxCell id="b8nhEuwxJYWnv2mNhjHD-112" value="Faktur Penjualan 3" style="edgeStyle=orthogonalEdgeStyle;rounded=0;orthogonalLoop=1;jettySize=auto;html=1;entryX=0.5;entryY=0;entryDx=0;entryDy=0;" edge="1" parent="1" target="b8nhEuwxJYWnv2mNhjHD-104">
          <mxGeometry relative="1" as="geometry">
            <mxPoint x="155" y="390" as="sourcePoint" />
          </mxGeometry>
        </mxCell>
        <mxCell id="b8nhEuwxJYWnv2mNhjHD-113" value="Data Barang" style="edgeStyle=orthogonalEdgeStyle;rounded=0;orthogonalLoop=1;jettySize=auto;html=1;exitX=1;exitY=0.5;exitDx=0;exitDy=0;entryX=0;entryY=0.25;entryDx=0;entryDy=0;" edge="1" parent="1" source="b8nhEuwxJYWnv2mNhjHD-104" target="b8nhEuwxJYWnv2mNhjHD-136">
          <mxGeometry relative="1" as="geometry">
            <mxPoint x="300" y="470" as="targetPoint" />
          </mxGeometry>
        </mxCell>
        <mxCell id="b8nhEuwxJYWnv2mNhjHD-125" value="Rec. Pelanggan" style="edgeStyle=orthogonalEdgeStyle;rounded=0;orthogonalLoop=1;jettySize=auto;html=1;exitX=1;exitY=0.5;exitDx=0;exitDy=0;entryX=0;entryY=0.5;entryDx=0;entryDy=0;" edge="1" parent="1" source="b8nhEuwxJYWnv2mNhjHD-123" target="b8nhEuwxJYWnv2mNhjHD-124">
          <mxGeometry relative="1" as="geometry" />
        </mxCell>
        <mxCell id="b8nhEuwxJYWnv2mNhjHD-123" value="&lt;p style=&quot;margin: 0px; margin-top: 4px; text-align: center; text-decoration: underline;&quot;&gt;&lt;strong&gt;1.0&lt;/strong&gt;&lt;/p&gt;&lt;hr&gt;&lt;p style=&quot;margin: 0px; margin-left: 8px;&quot;&gt;Proses&amp;nbsp;&lt;/p&gt;&lt;p style=&quot;margin: 0px; margin-left: 8px;&quot;&gt;&amp;nbsp; &amp;nbsp;Registrasi&amp;nbsp; &amp;nbsp;&amp;nbsp;&lt;/p&gt;" style="verticalAlign=middle;align=center;overflow=fill;fontSize=12;fontFamily=Helvetica;html=1;rounded=1;fontStyle=1;strokeWidth=3;fillColor=#E6FFCC" vertex="1" parent="1">
          <mxGeometry x="280" y="70" width="110" height="90" as="geometry" />
        </mxCell>
        <mxCell id="b8nhEuwxJYWnv2mNhjHD-126" value="Rec. Pelanggan" style="edgeStyle=orthogonalEdgeStyle;rounded=0;orthogonalLoop=1;jettySize=auto;html=1;exitX=0.5;exitY=1;exitDx=0;exitDy=0;entryX=1;entryY=0.75;entryDx=0;entryDy=0;" edge="1" parent="1" source="b8nhEuwxJYWnv2mNhjHD-124" target="b8nhEuwxJYWnv2mNhjHD-123">
          <mxGeometry relative="1" as="geometry">
            <Array as="points">
              <mxPoint x="560" y="138" />
            </Array>
          </mxGeometry>
        </mxCell>
        <mxCell id="b8nhEuwxJYWnv2mNhjHD-128" value="Rec. Pelanggan" style="edgeStyle=orthogonalEdgeStyle;rounded=0;orthogonalLoop=1;jettySize=auto;html=1;exitX=1;exitY=1;exitDx=0;exitDy=0;entryX=0.75;entryY=0;entryDx=0;entryDy=0;" edge="1" parent="1" source="b8nhEuwxJYWnv2mNhjHD-124" target="b8nhEuwxJYWnv2mNhjHD-127">
          <mxGeometry relative="1" as="geometry" />
        </mxCell>
        <mxCell id="b8nhEuwxJYWnv2mNhjHD-135" value="Rec. Pelanggan" style="edgeStyle=orthogonalEdgeStyle;rounded=0;orthogonalLoop=1;jettySize=auto;html=1;exitX=1;exitY=0.5;exitDx=0;exitDy=0;entryX=1;entryY=0.75;entryDx=0;entryDy=0;" edge="1" parent="1" source="b8nhEuwxJYWnv2mNhjHD-124" target="b8nhEuwxJYWnv2mNhjHD-129">
          <mxGeometry relative="1" as="geometry" />
        </mxCell>
        <mxCell id="b8nhEuwxJYWnv2mNhjHD-124" value="D1&amp;nbsp; &amp;nbsp; &amp;nbsp;Pelanggan" style="html=1;dashed=0;whiteSpace=wrap;shape=mxgraph.dfd.dataStoreID;align=left;spacingLeft=3;points=[[0,0],[0.5,0],[1,0],[0,0.5],[1,0.5],[0,1],[0.5,1],[1,1]];" vertex="1" parent="1">
          <mxGeometry x="510" y="100" width="100" height="30" as="geometry" />
        </mxCell>
        <mxCell id="b8nhEuwxJYWnv2mNhjHD-133" value="Rec. Penjualan" style="edgeStyle=orthogonalEdgeStyle;rounded=0;orthogonalLoop=1;jettySize=auto;html=1;exitX=0.5;exitY=1;exitDx=0;exitDy=0;entryX=0.5;entryY=0;entryDx=0;entryDy=0;" edge="1" parent="1" source="b8nhEuwxJYWnv2mNhjHD-127" target="b8nhEuwxJYWnv2mNhjHD-129">
          <mxGeometry relative="1" as="geometry" />
        </mxCell>
        <mxCell id="b8nhEuwxJYWnv2mNhjHD-127" value="&lt;p style=&quot;margin: 0px; margin-top: 4px; text-align: center; text-decoration: underline;&quot;&gt;&lt;strong&gt;2.0&lt;/strong&gt;&lt;/p&gt;&lt;hr&gt;&lt;p style=&quot;margin: 0px; margin-left: 8px;&quot;&gt;Proses&amp;nbsp;&lt;/p&gt;&lt;p style=&quot;margin: 0px; margin-left: 8px;&quot;&gt;&amp;nbsp; &amp;nbsp;Penjualan&amp;nbsp; &amp;nbsp;&amp;nbsp;&lt;/p&gt;" style="verticalAlign=middle;align=center;overflow=fill;fontSize=12;fontFamily=Helvetica;html=1;rounded=1;fontStyle=1;strokeWidth=3;fillColor=#E6FFCC" vertex="1" parent="1">
          <mxGeometry x="280" y="210" width="110" height="90" as="geometry" />
        </mxCell>
        <mxCell id="b8nhEuwxJYWnv2mNhjHD-129" value="&lt;p style=&quot;margin: 0px; margin-top: 4px; text-align: center; text-decoration: underline;&quot;&gt;&lt;strong&gt;3.0&lt;/strong&gt;&lt;/p&gt;&lt;hr&gt;&lt;p style=&quot;margin: 0px; margin-left: 8px;&quot;&gt;Proses&amp;nbsp;&lt;/p&gt;&lt;p style=&quot;margin: 0px; margin-left: 8px;&quot;&gt;&amp;nbsp;Retur Penjualan&amp;nbsp; &amp;nbsp; &amp;nbsp;&lt;/p&gt;" style="verticalAlign=middle;align=center;overflow=fill;fontSize=12;fontFamily=Helvetica;html=1;rounded=1;fontStyle=1;strokeWidth=3;fillColor=#E6FFCC" vertex="1" parent="1">
          <mxGeometry x="280" y="350" width="110" height="90" as="geometry" />
        </mxCell>
        <mxCell id="b8nhEuwxJYWnv2mNhjHD-132" value="Rec. Barang" style="edgeStyle=orthogonalEdgeStyle;rounded=0;orthogonalLoop=1;jettySize=auto;html=1;exitX=0;exitY=0.5;exitDx=0;exitDy=0;entryX=1;entryY=0.5;entryDx=0;entryDy=0;" edge="1" parent="1" source="b8nhEuwxJYWnv2mNhjHD-130" target="b8nhEuwxJYWnv2mNhjHD-127">
          <mxGeometry relative="1" as="geometry" />
        </mxCell>
        <mxCell id="b8nhEuwxJYWnv2mNhjHD-134" value="Rec. Barang" style="edgeStyle=orthogonalEdgeStyle;rounded=0;orthogonalLoop=1;jettySize=auto;html=1;exitX=0.5;exitY=1;exitDx=0;exitDy=0;entryX=1;entryY=0.25;entryDx=0;entryDy=0;" edge="1" parent="1" source="b8nhEuwxJYWnv2mNhjHD-130" target="b8nhEuwxJYWnv2mNhjHD-129">
          <mxGeometry relative="1" as="geometry" />
        </mxCell>
        <mxCell id="b8nhEuwxJYWnv2mNhjHD-138" value="Rec. Barang" style="edgeStyle=orthogonalEdgeStyle;rounded=0;orthogonalLoop=1;jettySize=auto;html=1;exitX=1;exitY=1;exitDx=0;exitDy=0;entryX=1;entryY=0.75;entryDx=0;entryDy=0;" edge="1" parent="1" source="b8nhEuwxJYWnv2mNhjHD-130" target="b8nhEuwxJYWnv2mNhjHD-136">
          <mxGeometry relative="1" as="geometry" />
        </mxCell>
        <mxCell id="b8nhEuwxJYWnv2mNhjHD-130" value="D2&amp;nbsp; &amp;nbsp; &amp;nbsp;Barang" style="html=1;dashed=0;whiteSpace=wrap;shape=mxgraph.dfd.dataStoreID;align=left;spacingLeft=3;points=[[0,0],[0.5,0],[1,0],[0,0.5],[1,0.5],[0,1],[0.5,1],[1,1]];" vertex="1" parent="1">
          <mxGeometry x="490" y="240" width="100" height="30" as="geometry" />
        </mxCell>
        <mxCell id="b8nhEuwxJYWnv2mNhjHD-137" value="Rec. Barang" style="edgeStyle=orthogonalEdgeStyle;rounded=0;orthogonalLoop=1;jettySize=auto;html=1;exitX=1;exitY=0.25;exitDx=0;exitDy=0;entryX=0;entryY=1;entryDx=0;entryDy=0;" edge="1" parent="1" source="b8nhEuwxJYWnv2mNhjHD-136" target="b8nhEuwxJYWnv2mNhjHD-130">
          <mxGeometry relative="1" as="geometry" />
        </mxCell>
        <mxCell id="b8nhEuwxJYWnv2mNhjHD-136" value="&lt;p style=&quot;margin: 0px; margin-top: 4px; text-align: center; text-decoration: underline;&quot;&gt;&lt;strong&gt;4.0&lt;/strong&gt;&lt;/p&gt;&lt;hr&gt;&lt;p style=&quot;margin: 0px; margin-left: 8px;&quot;&gt;Proses&amp;nbsp;&lt;/p&gt;&lt;p style=&quot;margin: 0px; margin-left: 8px;&quot;&gt;&lt;span style=&quot;background-color: initial;&quot;&gt;Penjualan Barang&amp;nbsp; &amp;nbsp; &amp;nbsp;&lt;/span&gt;&lt;/p&gt;" style="verticalAlign=middle;align=center;overflow=fill;fontSize=12;fontFamily=Helvetica;html=1;rounded=1;fontStyle=1;strokeWidth=3;fillColor=#E6FFCC" vertex="1" parent="1">
          <mxGeometry x="280" y="480" width="110" height="90" as="geometry" />
        </mxCell>
      </root>
    </mxGraphModel>
  </diagram>
  <diagram id="_V4guRWx-w3P8rbbCOkG" name="Page-2">
    <mxGraphModel dx="1960" dy="1787" grid="1" gridSize="10" guides="1" tooltips="1" connect="1" arrows="1" fold="1" page="1" pageScale="1" pageWidth="850" pageHeight="1100" math="0" shadow="0">
      <root>
        <mxCell id="0" />
        <mxCell id="1" parent="0" />
        <mxCell id="vPz8vspdAybqoq20qsWu-1" value="Sistem Informasi Penjualan Bumbu Masakan" style="shape=umlFrame;whiteSpace=wrap;html=1;pointerEvents=0;width=100;height=70;" vertex="1" parent="1">
          <mxGeometry x="60" y="-40" width="460" height="730" as="geometry" />
        </mxCell>
        <mxCell id="vPz8vspdAybqoq20qsWu-2" value="Admin" style="shape=umlActor;verticalLabelPosition=bottom;verticalAlign=top;html=1;" vertex="1" parent="1">
          <mxGeometry x="-50" y="170" width="30" height="60" as="geometry" />
        </mxCell>
        <mxCell id="vPz8vspdAybqoq20qsWu-4" value="Pelanggan" style="shape=umlActor;verticalLabelPosition=bottom;verticalAlign=top;html=1;" vertex="1" parent="1">
          <mxGeometry x="690" y="40" width="30" height="60" as="geometry" />
        </mxCell>
        <mxCell id="vPz8vspdAybqoq20qsWu-9" style="edgeStyle=orthogonalEdgeStyle;rounded=0;orthogonalLoop=1;jettySize=auto;html=1;exitX=0.5;exitY=0;exitDx=0;exitDy=0;exitPerimeter=0;" edge="1" parent="1" source="vPz8vspdAybqoq20qsWu-5" target="vPz8vspdAybqoq20qsWu-4">
          <mxGeometry relative="1" as="geometry" />
        </mxCell>
        <mxCell id="vPz8vspdAybqoq20qsWu-5" value="Pengunjung" style="shape=umlActor;verticalLabelPosition=bottom;verticalAlign=top;html=1;" vertex="1" parent="1">
          <mxGeometry x="620" y="180" width="30" height="60" as="geometry" />
        </mxCell>
        <mxCell id="vPz8vspdAybqoq20qsWu-6" value="Memesan" style="shape=umlActor;verticalLabelPosition=bottom;verticalAlign=top;html=1;" vertex="1" parent="1">
          <mxGeometry x="750" y="180" width="30" height="60" as="geometry" />
        </mxCell>
        <mxCell id="vPz8vspdAybqoq20qsWu-10" style="edgeStyle=orthogonalEdgeStyle;rounded=0;orthogonalLoop=1;jettySize=auto;html=1;exitX=0.5;exitY=0;exitDx=0;exitDy=0;exitPerimeter=0;entryX=0.4;entryY=0.946;entryDx=0;entryDy=0;entryPerimeter=0;" edge="1" parent="1" source="vPz8vspdAybqoq20qsWu-6" target="vPz8vspdAybqoq20qsWu-4">
          <mxGeometry relative="1" as="geometry" />
        </mxCell>
        <mxCell id="vPz8vspdAybqoq20qsWu-11" value="Melakukan Pencarian Buku" style="ellipse;whiteSpace=wrap;html=1;" vertex="1" parent="1">
          <mxGeometry x="260" y="35" width="140" height="70" as="geometry" />
        </mxCell>
        <mxCell id="vPz8vspdAybqoq20qsWu-12" style="edgeStyle=orthogonalEdgeStyle;rounded=0;orthogonalLoop=1;jettySize=auto;html=1;exitX=1;exitY=0.5;exitDx=0;exitDy=0;entryX=0.5;entryY=0.5;entryDx=0;entryDy=0;entryPerimeter=0;endArrow=none;endFill=0;" edge="1" parent="1" source="vPz8vspdAybqoq20qsWu-11" target="vPz8vspdAybqoq20qsWu-4">
          <mxGeometry relative="1" as="geometry" />
        </mxCell>
        <mxCell id="vPz8vspdAybqoq20qsWu-13" value="Mengelola Katalog Buku" style="ellipse;whiteSpace=wrap;html=1;" vertex="1" parent="1">
          <mxGeometry x="220" y="130" width="140" height="70" as="geometry" />
        </mxCell>
        <mxCell id="vPz8vspdAybqoq20qsWu-14" value="Melakukan Registrasi" style="ellipse;whiteSpace=wrap;html=1;" vertex="1" parent="1">
          <mxGeometry x="260" y="340" width="140" height="70" as="geometry" />
        </mxCell>
        <mxCell id="vPz8vspdAybqoq20qsWu-15" value="Memproses Pesanan Member" style="ellipse;whiteSpace=wrap;html=1;" vertex="1" parent="1">
          <mxGeometry x="220" y="210" width="140" height="70" as="geometry" />
        </mxCell>
        <mxCell id="7-vBT2JEtvdxXTG7MJtR-1" value="&amp;lt;&amp;lt;include&amp;gt;&amp;gt;" style="rounded=0;orthogonalLoop=1;jettySize=auto;html=1;exitX=0;exitY=1;exitDx=0;exitDy=0;dashed=1;" edge="1" parent="1" source="vPz8vspdAybqoq20qsWu-16" target="vPz8vspdAybqoq20qsWu-27">
          <mxGeometry relative="1" as="geometry" />
        </mxCell>
        <mxCell id="vPz8vspdAybqoq20qsWu-16" value="Memesan Buku" style="ellipse;whiteSpace=wrap;html=1;" vertex="1" parent="1">
          <mxGeometry x="260" y="420" width="140" height="70" as="geometry" />
        </mxCell>
        <mxCell id="vPz8vspdAybqoq20qsWu-19" style="rounded=0;orthogonalLoop=1;jettySize=auto;html=1;exitX=1;exitY=0.5;exitDx=0;exitDy=0;entryX=0.45;entryY=0.679;entryDx=0;entryDy=0;entryPerimeter=0;endArrow=none;endFill=0;" edge="1" parent="1" source="vPz8vspdAybqoq20qsWu-14" target="vPz8vspdAybqoq20qsWu-5">
          <mxGeometry relative="1" as="geometry">
            <Array as="points">
              <mxPoint x="590" y="250" />
            </Array>
          </mxGeometry>
        </mxCell>
        <mxCell id="vPz8vspdAybqoq20qsWu-20" style="rounded=0;orthogonalLoop=1;jettySize=auto;html=1;exitX=1;exitY=0.5;exitDx=0;exitDy=0;entryX=0;entryY=1;entryDx=0;entryDy=0;entryPerimeter=0;endArrow=none;endFill=0;" edge="1" parent="1" source="vPz8vspdAybqoq20qsWu-16" target="vPz8vspdAybqoq20qsWu-6">
          <mxGeometry relative="1" as="geometry" />
        </mxCell>
        <mxCell id="vPz8vspdAybqoq20qsWu-25" style="rounded=0;orthogonalLoop=1;jettySize=auto;html=1;exitX=0;exitY=0.5;exitDx=0;exitDy=0;entryX=1;entryY=0.3333333333333333;entryDx=0;entryDy=0;entryPerimeter=0;endArrow=none;endFill=0;" edge="1" parent="1" source="vPz8vspdAybqoq20qsWu-13" target="vPz8vspdAybqoq20qsWu-2">
          <mxGeometry relative="1" as="geometry" />
        </mxCell>
        <mxCell id="vPz8vspdAybqoq20qsWu-26" style="rounded=0;orthogonalLoop=1;jettySize=auto;html=1;exitX=0;exitY=0.5;exitDx=0;exitDy=0;entryX=0.5;entryY=0.5;entryDx=0;entryDy=0;entryPerimeter=0;endArrow=none;endFill=0;" edge="1" parent="1" source="vPz8vspdAybqoq20qsWu-15" target="vPz8vspdAybqoq20qsWu-2">
          <mxGeometry relative="1" as="geometry" />
        </mxCell>
        <mxCell id="vPz8vspdAybqoq20qsWu-27" value="Melakukan Pembayran" style="ellipse;whiteSpace=wrap;html=1;" vertex="1" parent="1">
          <mxGeometry x="170" y="550" width="140" height="70" as="geometry" />
        </mxCell>
      </root>
    </mxGraphModel>
  </diagram>
  <diagram id="flEoHPXNnYH111sgkKcV" name="Page-3">
    <mxGraphModel dx="1480" dy="916" grid="1" gridSize="10" guides="1" tooltips="1" connect="1" arrows="1" fold="1" page="1" pageScale="1" pageWidth="850" pageHeight="1100" math="0" shadow="0">
      <root>
        <mxCell id="0" />
        <mxCell id="1" parent="0" />
        <mxCell id="8YSIfyVSGjpQake00qnG-1" value="Sales Cafe" style="shape=umlFrame;whiteSpace=wrap;html=1;pointerEvents=0;" vertex="1" parent="1">
          <mxGeometry x="150" y="70" width="430" height="980" as="geometry" />
        </mxCell>
        <mxCell id="8YSIfyVSGjpQake00qnG-2" value="Manager" style="shape=umlActor;verticalLabelPosition=bottom;verticalAlign=top;html=1;" vertex="1" parent="1">
          <mxGeometry x="10" y="190" width="30" height="60" as="geometry" />
        </mxCell>
        <mxCell id="8YSIfyVSGjpQake00qnG-3" value="Mengelola Menu" style="ellipse;whiteSpace=wrap;html=1;" vertex="1" parent="1">
          <mxGeometry x="240" y="185" width="140" height="70" as="geometry" />
        </mxCell>
        <mxCell id="8YSIfyVSGjpQake00qnG-4" value="Pembatalan Reservasi" style="ellipse;whiteSpace=wrap;html=1;" vertex="1" parent="1">
          <mxGeometry x="425" y="460" width="140" height="70" as="geometry" />
        </mxCell>
        <mxCell id="8YSIfyVSGjpQake00qnG-26" value="&amp;lt;&amp;lt;extend&amp;gt;&amp;gt;" style="rounded=0;orthogonalLoop=1;jettySize=auto;html=1;exitX=1;exitY=0;exitDx=0;exitDy=0;endArrow=classic;endFill=1;dashed=1;" edge="1" parent="1" source="8YSIfyVSGjpQake00qnG-5" target="8YSIfyVSGjpQake00qnG-10">
          <mxGeometry relative="1" as="geometry" />
        </mxCell>
        <mxCell id="8YSIfyVSGjpQake00qnG-5" value="Mengelola Pesanan" style="ellipse;whiteSpace=wrap;html=1;" vertex="1" parent="1">
          <mxGeometry x="260" y="840" width="140" height="70" as="geometry" />
        </mxCell>
        <mxCell id="8YSIfyVSGjpQake00qnG-6" value="Mengelola Keanggotaan" style="ellipse;whiteSpace=wrap;html=1;" vertex="1" parent="1">
          <mxGeometry x="240" y="280" width="140" height="70" as="geometry" />
        </mxCell>
        <mxCell id="8YSIfyVSGjpQake00qnG-7" value="Mengelola Status Meja" style="ellipse;whiteSpace=wrap;html=1;" vertex="1" parent="1">
          <mxGeometry x="240" y="530" width="140" height="70" as="geometry" />
        </mxCell>
        <mxCell id="8YSIfyVSGjpQake00qnG-16" value="&amp;lt;&amp;lt;extend&amp;gt;&amp;gt;" style="rounded=0;orthogonalLoop=1;jettySize=auto;html=1;exitX=1;exitY=1;exitDx=0;exitDy=0;entryX=0;entryY=0.5;entryDx=0;entryDy=0;dashed=1;" edge="1" parent="1" source="8YSIfyVSGjpQake00qnG-8" target="8YSIfyVSGjpQake00qnG-4">
          <mxGeometry relative="1" as="geometry" />
        </mxCell>
        <mxCell id="8YSIfyVSGjpQake00qnG-17" value="&amp;lt;&amp;lt;extend&amp;gt;&amp;gt;" style="rounded=0;orthogonalLoop=1;jettySize=auto;html=1;exitX=0.5;exitY=1;exitDx=0;exitDy=0;entryX=0;entryY=0;entryDx=0;entryDy=0;dashed=1;" edge="1" parent="1" source="8YSIfyVSGjpQake00qnG-8" target="8YSIfyVSGjpQake00qnG-10">
          <mxGeometry relative="1" as="geometry">
            <Array as="points">
              <mxPoint x="400" y="530" />
            </Array>
          </mxGeometry>
        </mxCell>
        <mxCell id="8YSIfyVSGjpQake00qnG-8" value="Mengelola Reservasi" style="ellipse;whiteSpace=wrap;html=1;" vertex="1" parent="1">
          <mxGeometry x="240" y="390" width="140" height="70" as="geometry" />
        </mxCell>
        <mxCell id="8YSIfyVSGjpQake00qnG-10" value="Penggabungan Meja" style="ellipse;whiteSpace=wrap;html=1;" vertex="1" parent="1">
          <mxGeometry x="400" y="600" width="140" height="70" as="geometry" />
        </mxCell>
        <mxCell id="8YSIfyVSGjpQake00qnG-12" style="rounded=0;orthogonalLoop=1;jettySize=auto;html=1;exitX=0;exitY=0.5;exitDx=0;exitDy=0;entryX=0.5;entryY=0.5;entryDx=0;entryDy=0;entryPerimeter=0;endArrow=none;endFill=0;" edge="1" parent="1" source="8YSIfyVSGjpQake00qnG-3" target="8YSIfyVSGjpQake00qnG-2">
          <mxGeometry relative="1" as="geometry" />
        </mxCell>
        <mxCell id="8YSIfyVSGjpQake00qnG-13" style="rounded=0;orthogonalLoop=1;jettySize=auto;html=1;exitX=0;exitY=0.5;exitDx=0;exitDy=0;entryX=0.5;entryY=0.679;entryDx=0;entryDy=0;entryPerimeter=0;endArrow=none;endFill=0;" edge="1" parent="1" source="8YSIfyVSGjpQake00qnG-6" target="8YSIfyVSGjpQake00qnG-2">
          <mxGeometry relative="1" as="geometry" />
        </mxCell>
        <mxCell id="8YSIfyVSGjpQake00qnG-14" style="rounded=0;orthogonalLoop=1;jettySize=auto;html=1;exitX=0;exitY=0.5;exitDx=0;exitDy=0;entryX=1;entryY=1;entryDx=0;entryDy=0;entryPerimeter=0;endArrow=none;endFill=0;" edge="1" parent="1" source="8YSIfyVSGjpQake00qnG-8" target="8YSIfyVSGjpQake00qnG-2">
          <mxGeometry relative="1" as="geometry" />
        </mxCell>
        <mxCell id="8YSIfyVSGjpQake00qnG-15" style="rounded=0;orthogonalLoop=1;jettySize=auto;html=1;exitX=0;exitY=0.5;exitDx=0;exitDy=0;entryX=0;entryY=1;entryDx=0;entryDy=0;entryPerimeter=0;endArrow=none;endFill=0;" edge="1" parent="1" source="8YSIfyVSGjpQake00qnG-7" target="8YSIfyVSGjpQake00qnG-2">
          <mxGeometry relative="1" as="geometry" />
        </mxCell>
        <mxCell id="8YSIfyVSGjpQake00qnG-21" style="rounded=0;orthogonalLoop=1;jettySize=auto;html=1;exitX=0.5;exitY=0.5;exitDx=0;exitDy=0;exitPerimeter=0;entryX=1;entryY=0.5;entryDx=0;entryDy=0;endArrow=none;endFill=0;" edge="1" parent="1" source="8YSIfyVSGjpQake00qnG-19" target="8YSIfyVSGjpQake00qnG-20">
          <mxGeometry relative="1" as="geometry" />
        </mxCell>
        <mxCell id="8YSIfyVSGjpQake00qnG-19" value="Kasir" style="shape=umlActor;verticalLabelPosition=bottom;verticalAlign=top;html=1;" vertex="1" parent="1">
          <mxGeometry x="670" y="100" width="30" height="60" as="geometry" />
        </mxCell>
        <mxCell id="8YSIfyVSGjpQake00qnG-20" value="Mengelola Pembayaran" style="ellipse;whiteSpace=wrap;html=1;" vertex="1" parent="1">
          <mxGeometry x="425" y="150" width="140" height="70" as="geometry" />
        </mxCell>
        <mxCell id="8YSIfyVSGjpQake00qnG-23" style="rounded=0;orthogonalLoop=1;jettySize=auto;html=1;exitX=1;exitY=0.3333333333333333;exitDx=0;exitDy=0;exitPerimeter=0;entryX=0;entryY=0.5;entryDx=0;entryDy=0;endArrow=none;endFill=0;" edge="1" parent="1" source="8YSIfyVSGjpQake00qnG-22" target="8YSIfyVSGjpQake00qnG-7">
          <mxGeometry relative="1" as="geometry" />
        </mxCell>
        <mxCell id="8YSIfyVSGjpQake00qnG-25" style="rounded=0;orthogonalLoop=1;jettySize=auto;html=1;exitX=0.5;exitY=0.5;exitDx=0;exitDy=0;exitPerimeter=0;entryX=0;entryY=0.5;entryDx=0;entryDy=0;endArrow=none;endFill=0;" edge="1" parent="1" source="8YSIfyVSGjpQake00qnG-22" target="8YSIfyVSGjpQake00qnG-5">
          <mxGeometry relative="1" as="geometry" />
        </mxCell>
        <mxCell id="8YSIfyVSGjpQake00qnG-22" value="Waiter" style="shape=umlActor;verticalLabelPosition=bottom;verticalAlign=top;html=1;" vertex="1" parent="1">
          <mxGeometry x="10" y="570" width="30" height="60" as="geometry" />
        </mxCell>
      </root>
    </mxGraphModel>
  </diagram>
</mxfile>
